<svg xmlns="http://www.w3.org/2000/svg" width="158.75" height="44.501" viewBox="0 0 158.75 44.501">
  <g id="Group_6" data-name="Group 6" transform="translate(-35.25 -13.122)">
    <g id="Group_3" data-name="Group 3" transform="translate(242.25 -106)">
      <path id="Path_1" data-name="Path 1" d="M40.864,44.5H3.65A3.643,3.643,0,0,1,0,40.865V3.651A3.646,3.646,0,0,1,3.65,0H40.864a3.655,3.655,0,0,1,3.651,3.651V40.865A3.661,3.661,0,0,1,40.864,44.5" transform="translate(-206.999 119.122)" fill="#ffd100"/>
      <rect id="Rectangle_2" data-name="Rectangle 2" width="4.848" height="26.695" transform="translate(-174.447 128.025)" fill="#333"/>
      <path id="Path_2" data-name="Path 2" d="M39.151,39.134,27.78,27.33H21.792L32.441,38.513,21.792,54.025h6.32L35.89,42.236,39.151,45.9v8.124H44V27.33H39.151Z" transform="translate(-221.693 100.695)" fill="#333"/>
      <path id="Path_3" data-name="Path 3" d="M21.792,39.422V57.228L29.079,46.9Z" transform="translate(-221.693 92.542)" fill="#333"/>
    </g>
    <g id="Group_5" data-name="Group 5" transform="translate(255 -106)">
      <g id="Group_4" data-name="Group 4" transform="translate(5.531 -0.393)">
        <path id="Path_4" data-name="Path 4" d="M162.3,33.832h.042l4.138-6.488h3.547L165.622,34.3l4.912,9.261h-3.673L163.525,36.9l-1.211,1.844v4.813H159.05V27.33h3.265v6.5Z" transform="translate(-329.077 98.146)" fill="#333"/>
        <path id="Path_5" data-name="Path 5" d="M219.029,27.33l1.787,11.991h.042l1.914-11.991h3.139l1.914,11.991h.042l1.788-11.991h3.139l-2.956,16.214h-3.659l-1.816-11.766h-.042l-1.816,11.766h-3.659L215.89,27.33Z" transform="translate(-374.7 98.145)" fill="#333"/>
        <rect id="Rectangle_3" data-name="Rectangle 3" width="3.265" height="16.214" transform="translate(-140.429 125.475)" fill="#333"/>
        <path id="Path_6" data-name="Path 6" d="M341.124,33.832h.042l4.138-6.488h3.547L344.446,34.3l4.912,9.261h-3.673L342.32,36.9l-1.21,1.844v4.813h-3.265V27.33h3.265v6.5Z" transform="translate(-472.588 98.146)" fill="#333"/>
        <path id="Path_7" data-name="Path 7" d="M401.871,49.4h.453v1.882h.045a2.9,2.9,0,0,1,2.789-2.154,2.4,2.4,0,0,1,2.539,2.29h.045a2.922,2.922,0,0,1,2.766-2.29c1.95,0,2.744,1.383,2.744,3.061V61.1H412.8V52.192c0-2.018-1.2-2.653-2.177-2.653-1.814,0-2.834,1.633-2.834,3.877V61.1h-.454v-8.82c0-1.474-.544-2.744-2.154-2.744-1.542,0-2.857,1.27-2.857,4.286V61.1h-.453Z" transform="translate(-523.978 80.647)" fill="#333"/>
        <path id="Path_8" data-name="Path 8" d="M470.109,55.253c0-3.877,1.2-6.122,3.787-6.122,2.109,0,3.764,1.338,3.763,6.122S476,61.375,473.9,61.375c-2.63,0-3.787-2.29-3.786-6.122m3.786,5.714c2.335,0,3.31-1.927,3.311-5.714s-.975-5.714-3.31-5.714c-1.882,0-3.333,1.338-3.334,5.714,0,4.354,1.474,5.714,3.333,5.714" transform="translate(-578.75 80.647)" fill="#333"/>
        <path id="Path_9" data-name="Path 9" d="M515.4,36.162h-1.519v-.408H515.4V32.126h.454v3.628h2v.408h-2v9.455c0,1.088.295,1.429,1.292,1.429a3.683,3.683,0,0,0,.884-.068v.408a4.388,4.388,0,0,1-.907.068c-1.043,0-1.723-.408-1.723-1.791Z" transform="translate(-613.88 94.296)" fill="#333"/>
        <path id="Path_10" data-name="Path 10" d="M540.182,32.25h.454v11.7h-.453Zm0-4.49h.453v2.222h-.453Z" transform="translate(-634.993 97.8)" fill="#333"/>
        <path id="Path_11" data-name="Path 11" d="M553.047,55.253c0-3.877,1.2-6.122,3.787-6.122,2.109,0,3.764,1.338,3.764,6.122s-1.656,6.122-3.764,6.122c-2.63,0-3.786-2.29-3.786-6.122m3.786,5.714c2.335,0,3.311-1.927,3.311-5.714s-.975-5.714-3.31-5.714c-1.882,0-3.333,1.338-3.333,5.714,0,4.354,1.474,5.714,3.333,5.714" transform="translate(-645.32 80.647)" fill="#333"/>
        <path id="Path_12" data-name="Path 12" d="M601.409,49.4h.453v2.109h.045a3.116,3.116,0,0,1,2.993-2.381c2.245,0,3.016,1.5,3.015,3.56V61.1h-.453V52.736c0-2.585-1.156-3.2-2.562-3.2-1,0-3.039.771-3.039,4.1V61.1h-.454Z" transform="translate(-684.137 80.647)" fill="#333"/>
        <path id="Path_13" data-name="Path 13" d="M645.2,27.33h-2.856V27.6h1.268V33.6h.352V27.6H645.2Z" transform="translate(-716.993 98.145)" fill="#333"/>
        <path id="Path_14" data-name="Path 14" d="M663.711,33.6h.3l-.178-6.268h-.376l-1.39,5.84L660.7,27.33h-.36l-.186,6.268h.3l.163-5.537,1.331,5.537h.257l1.347-5.542Z" transform="translate(-731.288 98.146)" fill="#333"/>
      </g>
      <text id="Innovative_Simple_Efficient" data-name="Innovative, Simple &amp; Efficient" transform="translate(-164 154.663)" fill="#939393" font-size="8.8" font-family="HelveticaNeueLTStd-BdCn, Helvetica Neue LT Std"><tspan x="0" y="0">Innovative, Simple &amp; Efficient</tspan></text>
    </g>
  </g>
</svg>
